<svg width="57" height="57" viewBox="0 0 57 57" fill="none" xmlns="http://www.w3.org/2000/svg">
<path d="M0 20.7895C0 18.6966 1.69661 17 3.78947 17V17C11.6377 17 18 23.3623 18 31.2105V53.2105C18 55.3034 16.3034 57 14.2105 57V57C6.36227 57 0 50.6377 0 42.7895V20.7895Z" fill="white"/>
<path d="M22 31.2105C22 23.3623 28.3623 17 36.2105 17V17C38.3034 17 40 18.6966 40 20.7895V42.7895C40 50.6377 33.6377 57 25.7895 57V57C23.6966 57 22 55.3034 22 53.2105V31.2105Z" fill="white"/>
<path d="M44 49.5C44 45.9101 46.9101 43 50.5 43V43C54.0899 43 57 45.9101 57 49.5V50C57 53.866 53.866 57 50 57H46.7368C45.2253 57 44 55.7747 44 54.2632V49.5Z" fill="white"/>
</svg>
